<?xml version="1.0" standalone="no"?>
<!DOCTYPE svg PUBLIC "-//W3C//DTD SVG 20010904//EN"
 "http://www.w3.org/TR/2001/REC-SVG-20010904/DTD/svg10.dtd">
<svg version="1.0" xmlns="http://www.w3.org/2000/svg"
 width="300.000000pt" height="115.000000pt" viewBox="0 0 300.000000 115.000000"
 preserveAspectRatio="xMidYMid meet">
<metadata>
Created by potrace 1.10, written by Peter Selinger 2001-2011
</metadata>
<g transform="translate(0.000000,115.000000) scale(0.100000,-0.100000)"
fill="#000000" stroke="none">
<path d="M542 838 l3 -163 39 -3 38 -3 -4 70 c-2 39 -1 71 2 71 3 0 31 -31 63
-70 57 -70 57 -70 107 -70 28 0 50 2 50 5 0 2 -10 15 -22 27 -60 62 -128 139
-128 145 0 3 30 39 66 79 l66 74 -49 0 c-47 0 -49 -1 -98 -65 -27 -36 -53 -65
-56 -65 -4 0 -4 29 -1 65 l5 65 -42 0 -41 0 2 -162z"/>
<path d="M470 974 c-19 -7 -54 -13 -77 -13 l-43 -1 0 -152 0 -153 80 0 80 0 0
168 c0 92 -1 166 -2 166 -2 -1 -19 -7 -38 -15z m-2 -161 l-3 -108 -35 0 -35 0
-3 85 c-4 118 0 130 44 130 l35 0 -3 -107z"/>
<path d="M865 780 l0 -80 28 0 c17 0 27 5 27 15 0 8 -4 15 -10 15 -14 0 -13
83 1 97 15 15 2 33 -24 33 -21 0 -22 -4 -22 -80z"/>
<path d="M994 788 c-16 -40 -30 -76 -32 -80 -2 -5 5 -8 16 -8 11 0 22 9 25 20
4 15 14 20 37 20 23 0 33 -5 37 -20 3 -11 14 -20 25 -20 11 0 18 3 16 8 -1 4
-16 40 -32 80 -20 49 -34 72 -46 72 -12 0 -26 -23 -46 -72z m56 13 c0 -5 3
-16 6 -25 4 -12 0 -16 -15 -16 -22 0 -25 8 -15 34 7 17 24 22 24 7z"/>
<path d="M1169 855 c0 -3 0 -38 -1 -77 0 -61 3 -74 17 -76 14 -3 16 4 15 40
-1 23 -1 47 -1 53 1 5 17 -14 36 -43 52 -76 65 -70 65 28 0 63 -3 80 -14 80
-11 0 -16 -15 -18 -52 l-3 -52 -35 52 c-30 43 -59 66 -61 47z"/>
<path d="M1440 780 c0 -64 3 -80 15 -80 10 0 15 10 15 30 0 17 4 30 9 30 5 0
21 -13 34 -30 15 -17 35 -30 48 -30 21 0 20 3 -14 38 -20 21 -37 43 -37 49 0
7 14 21 30 33 34 24 39 40 11 40 -11 0 -31 -13 -44 -30 -14 -16 -28 -30 -31
-30 -3 0 -6 14 -6 30 0 20 -5 30 -15 30 -12 0 -15 -16 -15 -80z"/>
<path d="M1659 813 c-11 -26 -27 -61 -35 -77 -18 -37 -18 -36 5 -36 11 0 23 9
26 20 5 15 15 20 40 20 25 0 35 -5 40 -20 3 -11 15 -20 25 -20 16 0 15 7 -14
78 -41 95 -58 102 -87 35z m51 -40 c0 -7 -7 -13 -15 -13 -16 0 -19 9 -9 35 5
13 8 14 15 3 5 -7 9 -19 9 -25z"/>
<path d="M1820 780 c0 -64 3 -80 15 -80 10 0 15 11 15 35 0 19 4 35 9 35 5 0
19 -16 31 -35 13 -20 30 -35 41 -35 25 0 24 9 -6 40 -23 24 -24 28 -10 40 37
31 1 80 -58 80 l-37 0 0 -80z m75 30 c0 -8 -10 -16 -22 -18 -18 -3 -23 2 -23
18 0 16 5 21 23 18 12 -2 22 -10 22 -18z"/>
<path d="M1994 849 c-3 -6 -1 -16 5 -22 14 -14 15 -97 1 -97 -5 0 -10 -7 -10
-15 0 -10 10 -15 28 -15 l27 0 0 80 c0 76 -1 80 -22 80 -12 0 -25 -5 -29 -11z"/>
<path d="M2100 803 c0 -68 19 -103 56 -103 43 0 64 33 64 101 0 52 -2 60 -17
57 -15 -3 -17 -12 -15 -54 3 -37 -1 -54 -12 -63 -28 -24 -48 4 -45 63 3 41 0
52 -14 54 -14 3 -17 -5 -17 -55z"/>
<path d="M2270 780 c0 -64 3 -80 15 -80 10 0 15 10 15 30 0 17 4 30 10 30 5 0
19 -13 32 -30 12 -16 30 -30 40 -30 26 0 23 9 -18 51 l-36 37 36 28 c20 16 36
32 36 37 0 18 -37 4 -67 -25 l-33 -32 0 32 c0 22 -5 32 -15 32 -12 0 -15 -16
-15 -80z"/>
<path d="M2455 780 l0 -80 28 0 c17 0 27 5 27 15 0 8 -4 15 -10 15 -14 0 -13
97 2 102 18 6 -1 28 -25 28 -21 0 -22 -4 -22 -80z"/>
<path d="M960 446 c-19 -24 -8 -61 19 -64 13 -2 28 2 35 9 8 9 6 11 -11 6 -24
-5 -49 15 -38 33 3 5 15 10 26 10 10 0 19 5 19 10 0 15 -36 12 -50 -4z"/>
<path d="M1090 445 c-26 -32 13 -81 48 -59 22 14 27 41 12 59 -16 19 -44 19
-60 0z m48 -27 c-2 -13 -10 -23 -18 -23 -8 0 -16 10 -18 23 -3 17 2 22 18 22
16 0 21 -5 18 -22z"/>
<path d="M1220 420 c0 -22 5 -40 10 -40 6 0 10 9 10 21 0 11 4 17 10 14 6 -4
18 -1 27 7 15 12 16 10 9 -14 -4 -17 -2 -28 4 -28 5 0 10 18 10 40 0 44 -6 49
-26 23 -13 -17 -15 -17 -25 0 -17 29 -29 19 -29 -23z"/>
<path d="M1369 458 c-5 -24 -4 -78 3 -78 4 0 8 7 8 15 0 8 6 15 14 15 22 0 38
24 24 38 -10 10 -47 17 -49 10z"/>
<path d="M1498 420 c-9 -22 -12 -40 -7 -40 5 0 9 5 9 10 0 14 38 12 43 -2 2
-7 7 -10 11 -7 8 7 -21 79 -32 79 -4 0 -15 -18 -24 -40z"/>
<path d="M1620 420 c0 -22 5 -40 10 -40 6 0 10 10 10 23 l1 22 18 -22 c27 -32
36 -29 35 12 -1 43 -14 60 -14 19 l-1 -29 -20 28 c-28 37 -39 34 -39 -13z"/>
<path d="M1764 438 c9 -12 16 -30 16 -40 0 -30 15 -20 27 19 12 41 8 57 -8 33
-8 -11 -12 -12 -16 -2 -2 6 -11 12 -19 12 -13 0 -13 -3 0 -22z"/>
<path d="M2442 434 c-25 -17 -52 -64 -52 -89 0 -36 32 -84 67 -100 92 -44 189
57 142 148 -28 54 -108 76 -157 41z m103 -49 c30 -29 32 -58 5 -85 -41 -41
-110 -15 -110 42 0 33 31 68 60 68 12 0 32 -11 45 -25z"/>
</g>
</svg>
